<?xml version="1.0" encoding="iso-8859-1"?>
<!-- Generator: Adobe Illustrator 19.0.0, SVG Export Plug-In . SVG Version: 6.00 Build 0)  -->
<svg version="1.1" id="Capa_1" xmlns="http://www.w3.org/2000/svg" xmlns:xlink="http://www.w3.org/1999/xlink" x="0px" y="0px"
	 viewBox="0 0 512 512" style="enable-background:new 0 0 512 512;" xml:space="preserve">
<circle style="fill:#005C83;" cx="256" cy="256" r="256"/>
<path style="fill:#00263F;" d="M284.925,510.364C412.689,495.994,512,387.604,512,256c0-9.15-0.49-18.186-1.426-27.087
	L386.409,104.748l-10.583,39.987l-76.668-76.668l-67.112,54.699l128.836,128.836L87,283.91l33.033,33.033l-22.348,6.182
	L284.925,510.364z"/>
<path style="fill:#FFB344;" d="M120.715,473.353C159.969,497.837,206.327,512,256,512s96.031-14.163,135.285-38.647L360.5,312.5
	h-209L120.715,473.353z"/>
<path style="fill:#FF9451;" d="M391.285,473.353L360.5,312.5H255.952V512c0.016,0,0.032,0,0.048,0
	C305.673,512,352.031,497.837,391.285,473.353z"/>
<path style="fill:#FF6838;" d="M338.272,356.252H173.728c-26.586,0-48.138-21.552-48.138-48.138V104.748l51.455,53.228H333.18
	l53.229-53.228v203.366C386.409,334.7,364.857,356.252,338.272,356.252z"/>
<path style="fill:#AE4E32;" d="M333.181,157.977h-77.228v198.275h82.319c26.586,0,48.138-21.552,48.138-48.138V104.748
	L333.181,157.977z"/>
<circle style="fill:#333333;" cx="324.86" cy="237.15" r="12.642"/>
<g>
	<circle style="fill:#4D4D4D;" cx="187.14" cy="237.15" r="12.642"/>
	<path style="fill:#4D4D4D;" d="M262,269.672c10.325-2.663,17.953-12.038,17.953-23.194c0-13.229-10.724-11.977-23.953-11.977
		s-23.953-1.252-23.953,11.977c0,11.156,7.628,20.531,17.953,23.194v20.698h-13.295v12h38.59v-12H262V269.672z"/>
</g>
<path style="fill:#333333;" d="M262,269.672c10.325-2.663,17.953-12.038,17.953-23.194c0-13.229-10.724-11.977-23.953-11.977
	c-0.016,0-0.032,0-0.048,0v67.869h19.343v-12H262V269.672z"/>
<g>
	<rect x="87" y="268.91" style="fill:#FFFFFF;" width="115.77" height="15"/>
	
		<rect x="142.361" y="257.531" transform="matrix(-0.0939 -0.9956 0.9956 -0.0939 -145.3575 489.0317)" style="fill:#FFFFFF;" width="15" height="106.262"/>
</g>
<g>
	<rect x="309.23" y="268.91" style="fill:#E0E0E0;" width="115.77" height="15"/>
	
		<rect x="309.004" y="303.167" transform="matrix(-0.9956 -0.0939 0.0939 -0.9956 693.4984 653.9655)" style="fill:#E0E0E0;" width="106.262" height="15"/>
</g>
<path style="fill:#FF81AE;" d="M307.5,88c0-15.464-12.536-28-28-28c-9.852,0-18.509,5.093-23.5,12.785
	C251.009,65.093,242.352,60,232.5,60c-15.464,0-28,12.536-28,28c0,21,51.5,51,51.5,51S307.5,109,307.5,88z"/>
<path style="fill:#FF3F84;" d="M279.5,60c-9.852,0-18.509,5.093-23.5,12.785c-0.015-0.023,0,66.215,0,66.215s51.5-30,51.5-51
	C307.5,72.536,294.964,60,279.5,60z"/>
<g>
</g>
<g>
</g>
<g>
</g>
<g>
</g>
<g>
</g>
<g>
</g>
<g>
</g>
<g>
</g>
<g>
</g>
<g>
</g>
<g>
</g>
<g>
</g>
<g>
</g>
<g>
</g>
<g>
</g>
</svg>
